<svg width="32" height="38" viewBox="0 0 32 38" fill="none" xmlns="http://www.w3.org/2000/svg">
<path d="M26.7275 20.0809C26.7109 16.9674 28.0901 14.6174 30.8817 12.8867C29.3197 10.6046 26.9601 9.34899 23.8445 9.10298C20.895 8.86548 17.6714 10.8591 16.4916 10.8591C15.2454 10.8591 12.3873 9.18787 10.144 9.18787C5.50792 9.26417 0.581055 12.9631 0.581055 20.4881C0.581055 22.7109 0.979857 25.0071 1.77746 27.3769C2.84093 30.4904 6.6794 38.1257 10.6841 37.9984C12.7778 37.9476 14.2566 36.4798 16.9818 36.4798C19.6238 36.4798 20.9947 37.9984 23.3294 37.9984C27.3673 37.939 30.8402 30.9994 31.8538 27.8774C26.4367 25.2729 26.7275 20.2421 26.7275 20.0809ZM22.0249 6.15067C24.2932 3.40196 24.0854 0.89927 24.019 0C22.0167 0.118771 19.6986 1.39132 18.3776 2.96081C16.9236 4.64058 16.0679 6.71908 16.2507 9.06057C18.4191 9.23028 20.3965 8.09347 22.0249 6.15067Z" fill="black"/>
</svg>
