<svg width="113" height="38" viewBox="0 0 113 38" fill="none" xmlns="http://www.w3.org/2000/svg">
<g clip-path="url(#clip0_9014_16327)">
<path d="M26.7275 20.0809C26.7109 16.9674 28.0901 14.6174 30.8817 12.8867C29.3197 10.6046 26.9601 9.34899 23.8445 9.10298C20.895 8.86548 17.6714 10.8591 16.4916 10.8591C15.2454 10.8591 12.3873 9.18787 10.144 9.18787C5.50792 9.26417 0.581055 12.9631 0.581055 20.4881C0.581055 22.7109 0.979857 25.0071 1.77746 27.3769C2.84093 30.4904 6.6794 38.1257 10.6841 37.9984C12.7778 37.9476 14.2566 36.4798 16.9818 36.4798C19.6238 36.4798 20.9947 37.9984 23.3294 37.9984C27.3673 37.939 30.8402 30.9994 31.8538 27.8774C26.4367 25.2729 26.7275 20.2421 26.7275 20.0809ZM22.0249 6.15067C24.2932 3.40196 24.0854 0.89927 24.019 0C22.0167 0.118771 19.6986 1.39132 18.3776 2.96081C16.9236 4.64058 16.0679 6.71908 16.2507 9.06057C18.4191 9.23028 20.3965 8.09347 22.0249 6.15067Z" fill="black"/>
<path d="M44.5862 24.9614L42.4094 31.705H39.6113L46.7358 10.2737H50.001L57.1526 31.705H54.2593L52.019 24.9614H44.5862ZM51.4612 22.7969L49.4114 16.628C48.9443 15.2283 48.6359 13.9583 48.323 12.7163H48.2641C47.9511 13.9861 47.611 15.2886 47.2074 16.5955L45.1576 22.7923L51.4612 22.7969ZM59.2749 21.3369C59.2749 19.3672 59.216 17.7728 59.1479 16.3128H61.6059L61.7329 18.9546H61.7919C62.912 17.0776 64.6851 15.9653 67.1431 15.9653C70.7847 15.9653 73.5193 19.1123 73.5193 23.7888C73.5193 29.3227 70.2223 32.0526 66.6761 32.0526C64.6851 32.0526 62.9438 31.1628 62.0413 29.6379H61.9824V37.999H59.2749V21.3369ZM61.9778 25.4387C61.9778 25.8559 62.0367 26.2313 62.1047 26.5835C62.6036 28.5209 64.2498 29.8603 66.2135 29.8603C69.1067 29.8603 70.7892 27.4456 70.7892 23.9139C70.7892 20.8271 69.202 18.1946 66.3087 18.1946C64.4448 18.1946 62.7034 19.5618 62.1683 21.6614C62.073 22.009 61.9824 22.4261 61.9824 22.8062L61.9778 25.4387ZM76.349 21.3369C76.349 19.3672 76.2901 17.7728 76.2221 16.3128H78.6801L78.8071 18.9546H78.8661C79.9861 17.0776 81.7594 15.9653 84.2174 15.9653C87.8589 15.9653 90.5932 19.1123 90.5932 23.7888C90.5932 29.3227 87.2967 32.0526 83.75 32.0526C81.7594 32.0526 80.0182 31.1628 79.1154 29.6379H79.0565V37.999H76.349V21.3369ZM79.0565 25.4387C79.0565 25.8559 79.1154 26.2313 79.1834 26.5835C79.6822 28.5209 81.3286 29.8603 83.2923 29.8603C86.1856 29.8603 87.8679 27.4456 87.8679 23.9139C87.8679 20.8271 86.2805 18.1946 83.3871 18.1946C81.5234 18.1946 79.7822 19.5618 79.2469 21.6614C79.152 22.009 79.0609 22.4261 79.0609 22.8062L79.0565 25.4387ZM93.4276 9.12891H96.1671V31.7004H93.4276V9.12891ZM101.672 24.5164C101.731 28.2984 104.099 29.8603 106.833 29.8603C108.792 29.8603 109.976 29.5127 111.001 29.0678L111.468 31.07C110.507 31.5149 108.856 32.0248 106.461 32.0248C101.827 32.0248 99.0559 28.9102 99.0559 24.2661C99.0559 19.6221 101.731 15.9653 106.116 15.9653C111.032 15.9653 112.338 20.3821 112.338 23.2141C112.338 23.7888 112.279 24.229 112.244 24.5164H101.672ZM109.699 22.5142C109.731 20.7344 108.983 17.9675 105.904 17.9675C103.133 17.9675 101.922 20.5769 101.704 22.5142H109.699Z" fill="black"/>
</g>
<defs>
<clipPath id="clip0_9014_16327">
<rect width="112" height="38" fill="white" transform="translate(0.581055)"/>
</clipPath>
</defs>
</svg>
