<svg width="392" height="200" viewBox="0 0 392 200" fill="none" xmlns="http://www.w3.org/2000/svg">
<g clip-path="url(#clip0_9014_21003)">
<rect width="392" height="200" rx="8" fill="#1744C8"/>
<rect width="392" height="200" rx="8" fill="black" fill-opacity="0.2"/>
<rect width="392" height="200" rx="8" fill="black" fill-opacity="0.2"/>
<circle cx="102" cy="104" r="144" fill="#0C2264"/>
<ellipse cx="361.5" cy="-5.5" rx="81.5" ry="71.5" fill="#113396"/>
<path d="M37.7539 44.9375V62H34.8359V44.9375H37.7539ZM43.1094 44.9375V47.2812H29.5273V44.9375H43.1094ZM47.0703 51.7344V62H44.2461V49.3203H46.9414L47.0703 51.7344ZM50.9492 49.2383L50.9258 51.8633C50.7539 51.832 50.5664 51.8086 50.3633 51.793C50.168 51.7773 49.9727 51.7695 49.7773 51.7695C49.293 51.7695 48.8672 51.8398 48.5 51.9805C48.1328 52.1133 47.8242 52.3086 47.5742 52.5664C47.332 52.8164 47.1445 53.1211 47.0117 53.4805C46.8789 53.8398 46.8008 54.2422 46.7773 54.6875L46.1328 54.7344C46.1328 53.9375 46.2109 53.1992 46.3672 52.5195C46.5234 51.8398 46.7578 51.2422 47.0703 50.7266C47.3906 50.2109 47.7891 49.8086 48.2656 49.5195C48.75 49.2305 49.3086 49.0859 49.9414 49.0859C50.1133 49.0859 50.2969 49.1016 50.4922 49.1328C50.6953 49.1641 50.8477 49.1992 50.9492 49.2383ZM59.4453 59.457V53.4102C59.4453 52.957 59.3633 52.5664 59.1992 52.2383C59.0352 51.9102 58.7852 51.6562 58.4492 51.4766C58.1211 51.2969 57.707 51.207 57.207 51.207C56.7461 51.207 56.3477 51.2852 56.0117 51.4414C55.6758 51.5977 55.4141 51.8086 55.2266 52.0742C55.0391 52.3398 54.9453 52.6406 54.9453 52.9766H52.1328C52.1328 52.4766 52.2539 51.9922 52.4961 51.5234C52.7383 51.0547 53.0898 50.6367 53.5508 50.2695C54.0117 49.9023 54.5625 49.6133 55.2031 49.4023C55.8438 49.1914 56.5625 49.0859 57.3594 49.0859C58.3125 49.0859 59.1562 49.2461 59.8906 49.5664C60.6328 49.8867 61.2148 50.3711 61.6367 51.0195C62.0664 51.6602 62.2812 52.4648 62.2812 53.4336V59.0703C62.2812 59.6484 62.3203 60.168 62.3984 60.6289C62.4844 61.082 62.6055 61.4766 62.7617 61.8125V62H59.8672C59.7344 61.6953 59.6289 61.3086 59.5508 60.8398C59.4805 60.3633 59.4453 59.9023 59.4453 59.457ZM59.8555 54.2891L59.8789 56.0352H57.8516C57.3281 56.0352 56.8672 56.0859 56.4688 56.1875C56.0703 56.2812 55.7383 56.4219 55.4727 56.6094C55.207 56.7969 55.0078 57.0234 54.875 57.2891C54.7422 57.5547 54.6758 57.8555 54.6758 58.1914C54.6758 58.5273 54.7539 58.8359 54.9102 59.1172C55.0664 59.3906 55.293 59.6055 55.5898 59.7617C55.8945 59.918 56.2617 59.9961 56.6914 59.9961C57.2695 59.9961 57.7734 59.8789 58.2031 59.6445C58.6406 59.4023 58.9844 59.1094 59.2344 58.7656C59.4844 58.4141 59.6172 58.082 59.6328 57.7695L60.5469 59.0234C60.4531 59.3438 60.293 59.6875 60.0664 60.0547C59.8398 60.4219 59.543 60.7734 59.1758 61.1094C58.8164 61.4375 58.3828 61.707 57.875 61.918C57.375 62.1289 56.7969 62.2344 56.1406 62.2344C55.3125 62.2344 54.5742 62.0703 53.9258 61.7422C53.2773 61.4062 52.7695 60.957 52.4023 60.3945C52.0352 59.8242 51.8516 59.1797 51.8516 58.4609C51.8516 57.7891 51.9766 57.1953 52.2266 56.6797C52.4844 56.1562 52.8594 55.7188 53.3516 55.3672C53.8516 55.0156 54.4609 54.75 55.1797 54.5703C55.8984 54.3828 56.7188 54.2891 57.6406 54.2891H59.8555ZM69.1719 59.7617L72.2773 49.3203H75.207L70.8008 62H68.9727L69.1719 59.7617ZM66.793 49.3203L69.957 59.8086L70.1094 62H68.2812L63.8516 49.3203H66.793ZM82.3789 62.2344C81.4414 62.2344 80.5938 62.082 79.8359 61.7773C79.0859 61.4648 78.4453 61.0312 77.9141 60.4766C77.3906 59.9219 76.9883 59.2695 76.707 58.5195C76.4258 57.7695 76.2852 56.9609 76.2852 56.0938V55.625C76.2852 54.6328 76.4297 53.7344 76.7188 52.9297C77.0078 52.125 77.4102 51.4375 77.9258 50.8672C78.4414 50.2891 79.0508 49.8477 79.7539 49.543C80.457 49.2383 81.2188 49.0859 82.0391 49.0859C82.9453 49.0859 83.7383 49.2383 84.418 49.543C85.0977 49.8477 85.6602 50.2773 86.1055 50.832C86.5586 51.3789 86.8945 52.0312 87.1133 52.7891C87.3398 53.5469 87.4531 54.3828 87.4531 55.2969V56.5039H77.6562V54.4766H84.6641V54.2539C84.6484 53.7461 84.5469 53.2695 84.3594 52.8242C84.1797 52.3789 83.9023 52.0195 83.5273 51.7461C83.1523 51.4727 82.6523 51.3359 82.0273 51.3359C81.5586 51.3359 81.1406 51.4375 80.7734 51.6406C80.4141 51.8359 80.1133 52.1211 79.8711 52.4961C79.6289 52.8711 79.4414 53.3242 79.3086 53.8555C79.1836 54.3789 79.1211 54.9688 79.1211 55.625V56.0938C79.1211 56.6484 79.1953 57.1641 79.3438 57.6406C79.5 58.1094 79.7266 58.5195 80.0234 58.8711C80.3203 59.2227 80.6797 59.5 81.1016 59.7031C81.5234 59.8984 82.0039 59.9961 82.543 59.9961C83.2227 59.9961 83.8281 59.8594 84.3594 59.5859C84.8906 59.3125 85.3516 58.9258 85.7422 58.4258L87.2305 59.8672C86.957 60.2656 86.6016 60.6484 86.1641 61.0156C85.7266 61.375 85.1914 61.668 84.5586 61.8945C83.9336 62.1211 83.207 62.2344 82.3789 62.2344ZM92.6797 44V62H89.8438V44H92.6797ZM151.578 59.2812L151.566 61.2969C151.566 62.0938 151.367 62.9141 150.969 63.7578C150.57 64.6016 150.043 65.2969 149.387 65.8438L147.875 64.9648C148.094 64.6133 148.293 64.2578 148.473 63.8984C148.652 63.5391 148.797 63.1562 148.906 62.75C149.016 62.3438 149.07 61.8945 149.07 61.4023V59.2812H151.578ZM166.086 49.3203V51.3828H158.938V49.3203H166.086ZM161 46.2148H163.824V58.4961C163.824 58.8867 163.879 59.1875 163.988 59.3984C164.105 59.6016 164.266 59.7383 164.469 59.8086C164.672 59.8789 164.91 59.9141 165.184 59.9141C165.379 59.9141 165.566 59.9023 165.746 59.8789C165.926 59.8555 166.07 59.832 166.18 59.8086L166.191 61.9648C165.957 62.0352 165.684 62.0977 165.371 62.1523C165.066 62.207 164.715 62.2344 164.316 62.2344C163.668 62.2344 163.094 62.1211 162.594 61.8945C162.094 61.6602 161.703 61.2812 161.422 60.7578C161.141 60.2344 161 59.5391 161 58.6719V46.2148ZM171.102 51.7344V62H168.277V49.3203H170.973L171.102 51.7344ZM174.98 49.2383L174.957 51.8633C174.785 51.832 174.598 51.8086 174.395 51.793C174.199 51.7773 174.004 51.7695 173.809 51.7695C173.324 51.7695 172.898 51.8398 172.531 51.9805C172.164 52.1133 171.855 52.3086 171.605 52.5664C171.363 52.8164 171.176 53.1211 171.043 53.4805C170.91 53.8398 170.832 54.2422 170.809 54.6875L170.164 54.7344C170.164 53.9375 170.242 53.1992 170.398 52.5195C170.555 51.8398 170.789 51.2422 171.102 50.7266C171.422 50.2109 171.82 49.8086 172.297 49.5195C172.781 49.2305 173.34 49.0859 173.973 49.0859C174.145 49.0859 174.328 49.1016 174.523 49.1328C174.727 49.1641 174.879 49.1992 174.98 49.2383ZM183.477 59.457V53.4102C183.477 52.957 183.395 52.5664 183.23 52.2383C183.066 51.9102 182.816 51.6562 182.48 51.4766C182.152 51.2969 181.738 51.207 181.238 51.207C180.777 51.207 180.379 51.2852 180.043 51.4414C179.707 51.5977 179.445 51.8086 179.258 52.0742C179.07 52.3398 178.977 52.6406 178.977 52.9766H176.164C176.164 52.4766 176.285 51.9922 176.527 51.5234C176.77 51.0547 177.121 50.6367 177.582 50.2695C178.043 49.9023 178.594 49.6133 179.234 49.4023C179.875 49.1914 180.594 49.0859 181.391 49.0859C182.344 49.0859 183.188 49.2461 183.922 49.5664C184.664 49.8867 185.246 50.3711 185.668 51.0195C186.098 51.6602 186.312 52.4648 186.312 53.4336V59.0703C186.312 59.6484 186.352 60.168 186.43 60.6289C186.516 61.082 186.637 61.4766 186.793 61.8125V62H183.898C183.766 61.6953 183.66 61.3086 183.582 60.8398C183.512 60.3633 183.477 59.9023 183.477 59.457ZM183.887 54.2891L183.91 56.0352H181.883C181.359 56.0352 180.898 56.0859 180.5 56.1875C180.102 56.2812 179.77 56.4219 179.504 56.6094C179.238 56.7969 179.039 57.0234 178.906 57.2891C178.773 57.5547 178.707 57.8555 178.707 58.1914C178.707 58.5273 178.785 58.8359 178.941 59.1172C179.098 59.3906 179.324 59.6055 179.621 59.7617C179.926 59.918 180.293 59.9961 180.723 59.9961C181.301 59.9961 181.805 59.8789 182.234 59.6445C182.672 59.4023 183.016 59.1094 183.266 58.7656C183.516 58.4141 183.648 58.082 183.664 57.7695L184.578 59.0234C184.484 59.3438 184.324 59.6875 184.098 60.0547C183.871 60.4219 183.574 60.7734 183.207 61.1094C182.848 61.4375 182.414 61.707 181.906 61.918C181.406 62.1289 180.828 62.2344 180.172 62.2344C179.344 62.2344 178.605 62.0703 177.957 61.7422C177.309 61.4062 176.801 60.957 176.434 60.3945C176.066 59.8242 175.883 59.1797 175.883 58.4609C175.883 57.7891 176.008 57.1953 176.258 56.6797C176.516 56.1562 176.891 55.7188 177.383 55.3672C177.883 55.0156 178.492 54.75 179.211 54.5703C179.93 54.3828 180.75 54.2891 181.672 54.2891H183.887ZM193.203 59.7617L196.309 49.3203H199.238L194.832 62H193.004L193.203 59.7617ZM190.824 49.3203L193.988 59.8086L194.141 62H192.312L187.883 49.3203H190.824ZM206.41 62.2344C205.473 62.2344 204.625 62.082 203.867 61.7773C203.117 61.4648 202.477 61.0312 201.945 60.4766C201.422 59.9219 201.02 59.2695 200.738 58.5195C200.457 57.7695 200.316 56.9609 200.316 56.0938V55.625C200.316 54.6328 200.461 53.7344 200.75 52.9297C201.039 52.125 201.441 51.4375 201.957 50.8672C202.473 50.2891 203.082 49.8477 203.785 49.543C204.488 49.2383 205.25 49.0859 206.07 49.0859C206.977 49.0859 207.77 49.2383 208.449 49.543C209.129 49.8477 209.691 50.2773 210.137 50.832C210.59 51.3789 210.926 52.0312 211.145 52.7891C211.371 53.5469 211.484 54.3828 211.484 55.2969V56.5039H201.688V54.4766H208.695V54.2539C208.68 53.7461 208.578 53.2695 208.391 52.8242C208.211 52.3789 207.934 52.0195 207.559 51.7461C207.184 51.4727 206.684 51.3359 206.059 51.3359C205.59 51.3359 205.172 51.4375 204.805 51.6406C204.445 51.8359 204.145 52.1211 203.902 52.4961C203.66 52.8711 203.473 53.3242 203.34 53.8555C203.215 54.3789 203.152 54.9688 203.152 55.625V56.0938C203.152 56.6484 203.227 57.1641 203.375 57.6406C203.531 58.1094 203.758 58.5195 204.055 58.8711C204.352 59.2227 204.711 59.5 205.133 59.7031C205.555 59.8984 206.035 59.9961 206.574 59.9961C207.254 59.9961 207.859 59.8594 208.391 59.5859C208.922 59.3125 209.383 58.9258 209.773 58.4258L211.262 59.8672C210.988 60.2656 210.633 60.6484 210.195 61.0156C209.758 61.375 209.223 61.668 208.59 61.8945C207.965 62.1211 207.238 62.2344 206.41 62.2344ZM216.711 44V62H213.875V44H216.711ZM37.5664 86.5664C37.5664 86.2852 37.4961 86.0312 37.3555 85.8047C37.2148 85.5703 36.9453 85.3594 36.5469 85.1719C36.1562 84.9844 35.5781 84.8125 34.8125 84.6562C34.1406 84.5078 33.5234 84.332 32.9609 84.1289C32.4062 83.918 31.9297 83.6641 31.5312 83.3672C31.1328 83.0703 30.8242 82.7188 30.6055 82.3125C30.3867 81.9062 30.2773 81.4375 30.2773 80.9062C30.2773 80.3906 30.3906 79.9023 30.6172 79.4414C30.8438 78.9805 31.168 78.5742 31.5898 78.2227C32.0117 77.8711 32.5234 77.5938 33.125 77.3906C33.7344 77.1875 34.4141 77.0859 35.1641 77.0859C36.2266 77.0859 37.1367 77.2656 37.8945 77.625C38.6602 77.9766 39.2461 78.457 39.6523 79.0664C40.0586 79.668 40.2617 80.3477 40.2617 81.1055H37.4375C37.4375 80.7695 37.3516 80.457 37.1797 80.168C37.0156 79.8711 36.7656 79.6328 36.4297 79.4531C36.0938 79.2656 35.6719 79.1719 35.1641 79.1719C34.6797 79.1719 34.2773 79.25 33.957 79.4062C33.6445 79.5547 33.4102 79.75 33.2539 79.9922C33.1055 80.2344 33.0312 80.5 33.0312 80.7891C33.0312 81 33.0703 81.1914 33.1484 81.3633C33.2344 81.5273 33.375 81.6797 33.5703 81.8203C33.7656 81.9531 34.0312 82.0781 34.3672 82.1953C34.7109 82.3125 35.1406 82.4258 35.6562 82.5352C36.625 82.7383 37.457 83 38.1523 83.3203C38.8555 83.6328 39.3945 84.0391 39.7695 84.5391C40.1445 85.0312 40.332 85.6562 40.332 86.4141C40.332 86.9766 40.2109 87.4922 39.9688 87.9609C39.7344 88.4219 39.3906 88.8242 38.9375 89.168C38.4844 89.5039 37.9414 89.7656 37.3086 89.9531C36.6836 90.1406 35.9805 90.2344 35.1992 90.2344C34.0508 90.2344 33.0781 90.0312 32.2812 89.625C31.4844 89.2109 30.8789 88.6836 30.4648 88.043C30.0586 87.3945 29.8555 86.7227 29.8555 86.0273H32.5859C32.6172 86.5508 32.7617 86.9688 33.0195 87.2812C33.2852 87.5859 33.6133 87.8086 34.0039 87.9492C34.4023 88.082 34.8125 88.1484 35.2344 88.1484C35.7422 88.1484 36.168 88.082 36.5117 87.9492C36.8555 87.8086 37.1172 87.6211 37.2969 87.3867C37.4766 87.1445 37.5664 86.8711 37.5664 86.5664ZM45.6289 79.8984V90H42.8047V77.3203H45.4648L45.6289 79.8984ZM45.1719 83.1914L44.2109 83.1797C44.2109 82.3047 44.3203 81.4961 44.5391 80.7539C44.7578 80.0117 45.0781 79.3672 45.5 78.8203C45.9219 78.2656 46.4453 77.8398 47.0703 77.543C47.7031 77.2383 48.4336 77.0859 49.2617 77.0859C49.8398 77.0859 50.3672 77.1719 50.8438 77.3438C51.3281 77.5078 51.7461 77.7695 52.0977 78.1289C52.457 78.4883 52.7305 78.9492 52.918 79.5117C53.1133 80.0742 53.2109 80.7539 53.2109 81.5508V90H50.3867V81.7969C50.3867 81.1797 50.293 80.6953 50.1055 80.3438C49.9258 79.9922 49.6641 79.7422 49.3203 79.5938C48.9844 79.4375 48.582 79.3594 48.1133 79.3594C47.582 79.3594 47.1289 79.4609 46.7539 79.6641C46.3867 79.8672 46.0859 80.1445 45.8516 80.4961C45.6172 80.8477 45.4453 81.2539 45.3359 81.7148C45.2266 82.1758 45.1719 82.668 45.1719 83.1914ZM53.0352 82.4414L51.7109 82.7344C51.7109 81.9688 51.8164 81.2461 52.0273 80.5664C52.2461 79.8789 52.5625 79.2773 52.9766 78.7617C53.3984 78.2383 53.918 77.8281 54.5352 77.5312C55.1523 77.2344 55.8594 77.0859 56.6562 77.0859C57.3047 77.0859 57.8828 77.1758 58.3906 77.3555C58.9062 77.5273 59.3438 77.8008 59.7031 78.1758C60.0625 78.5508 60.3359 79.0391 60.5234 79.6406C60.7109 80.2344 60.8047 80.9531 60.8047 81.7969V90H57.9688V81.7852C57.9688 81.1445 57.875 80.6484 57.6875 80.2969C57.5078 79.9453 57.25 79.7031 56.9141 79.5703C56.5781 79.4297 56.1758 79.3594 55.707 79.3594C55.2695 79.3594 54.8828 79.4414 54.5469 79.6055C54.2188 79.7617 53.9414 79.9844 53.7148 80.2734C53.4883 80.5547 53.3164 80.8789 53.1992 81.2461C53.0898 81.6133 53.0352 82.0117 53.0352 82.4414ZM70.8594 87.457V81.4102C70.8594 80.957 70.7773 80.5664 70.6133 80.2383C70.4492 79.9102 70.1992 79.6562 69.8633 79.4766C69.5352 79.2969 69.1211 79.207 68.6211 79.207C68.1602 79.207 67.7617 79.2852 67.4258 79.4414C67.0898 79.5977 66.8281 79.8086 66.6406 80.0742C66.4531 80.3398 66.3594 80.6406 66.3594 80.9766H63.5469C63.5469 80.4766 63.668 79.9922 63.9102 79.5234C64.1523 79.0547 64.5039 78.6367 64.9648 78.2695C65.4258 77.9023 65.9766 77.6133 66.6172 77.4023C67.2578 77.1914 67.9766 77.0859 68.7734 77.0859C69.7266 77.0859 70.5703 77.2461 71.3047 77.5664C72.0469 77.8867 72.6289 78.3711 73.0508 79.0195C73.4805 79.6602 73.6953 80.4648 73.6953 81.4336V87.0703C73.6953 87.6484 73.7344 88.168 73.8125 88.6289C73.8984 89.082 74.0195 89.4766 74.1758 89.8125V90H71.2812C71.1484 89.6953 71.043 89.3086 70.9648 88.8398C70.8945 88.3633 70.8594 87.9023 70.8594 87.457ZM71.2695 82.2891L71.293 84.0352H69.2656C68.7422 84.0352 68.2812 84.0859 67.8828 84.1875C67.4844 84.2812 67.1523 84.4219 66.8867 84.6094C66.6211 84.7969 66.4219 85.0234 66.2891 85.2891C66.1562 85.5547 66.0898 85.8555 66.0898 86.1914C66.0898 86.5273 66.168 86.8359 66.3242 87.1172C66.4805 87.3906 66.707 87.6055 67.0039 87.7617C67.3086 87.918 67.6758 87.9961 68.1055 87.9961C68.6836 87.9961 69.1875 87.8789 69.6172 87.6445C70.0547 87.4023 70.3984 87.1094 70.6484 86.7656C70.8984 86.4141 71.0312 86.082 71.0469 85.7695L71.9609 87.0234C71.8672 87.3438 71.707 87.6875 71.4805 88.0547C71.2539 88.4219 70.957 88.7734 70.5898 89.1094C70.2305 89.4375 69.7969 89.707 69.2891 89.918C68.7891 90.1289 68.2109 90.2344 67.5547 90.2344C66.7266 90.2344 65.9883 90.0703 65.3398 89.7422C64.6914 89.4062 64.1836 88.957 63.8164 88.3945C63.4492 87.8242 63.2656 87.1797 63.2656 86.4609C63.2656 85.7891 63.3906 85.1953 63.6406 84.6797C63.8984 84.1562 64.2734 83.7188 64.7656 83.3672C65.2656 83.0156 65.875 82.75 66.5938 82.5703C67.3125 82.3828 68.1328 82.2891 69.0547 82.2891H71.2695ZM79.4844 79.7344V90H76.6602V77.3203H79.3555L79.4844 79.7344ZM83.3633 77.2383L83.3398 79.8633C83.168 79.832 82.9805 79.8086 82.7773 79.793C82.582 79.7773 82.3867 79.7695 82.1914 79.7695C81.707 79.7695 81.2812 79.8398 80.9141 79.9805C80.5469 80.1133 80.2383 80.3086 79.9883 80.5664C79.7461 80.8164 79.5586 81.1211 79.4258 81.4805C79.293 81.8398 79.2148 82.2422 79.1914 82.6875L78.5469 82.7344C78.5469 81.9375 78.625 81.1992 78.7812 80.5195C78.9375 79.8398 79.1719 79.2422 79.4844 78.7266C79.8047 78.2109 80.2031 77.8086 80.6797 77.5195C81.1641 77.2305 81.7227 77.0859 82.3555 77.0859C82.5273 77.0859 82.7109 77.1016 82.9062 77.1328C83.1094 77.1641 83.2617 77.1992 83.3633 77.2383ZM91.5312 77.3203V79.3828H84.3828V77.3203H91.5312ZM86.4453 74.2148H89.2695V86.4961C89.2695 86.8867 89.3242 87.1875 89.4336 87.3984C89.5508 87.6016 89.7109 87.7383 89.9141 87.8086C90.1172 87.8789 90.3555 87.9141 90.6289 87.9141C90.8242 87.9141 91.0117 87.9023 91.1914 87.8789C91.3711 87.8555 91.5156 87.832 91.625 87.8086L91.6367 89.9648C91.4023 90.0352 91.1289 90.0977 90.8164 90.1523C90.5117 90.207 90.1602 90.2344 89.7617 90.2344C89.1133 90.2344 88.5391 90.1211 88.0391 89.8945C87.5391 89.6602 87.1484 89.2812 86.8672 88.7578C86.5859 88.2344 86.4453 87.5391 86.4453 86.6719V74.2148ZM96.9688 72.9375L96.6875 84.9727H94.2734L93.9805 72.9375H96.9688ZM93.8984 88.6641C93.8984 88.2344 94.0391 87.875 94.3203 87.5859C94.6094 87.2891 95.0078 87.1406 95.5156 87.1406C96.0156 87.1406 96.4102 87.2891 96.6992 87.5859C96.9883 87.875 97.1328 88.2344 97.1328 88.6641C97.1328 89.0781 96.9883 89.4336 96.6992 89.7305C96.4102 90.0195 96.0156 90.1641 95.5156 90.1641C95.0078 90.1641 94.6094 90.0195 94.3203 89.7305C94.0391 89.4336 93.8984 89.0781 93.8984 88.6641Z" fill="#FDFDFD"/>
<path d="M104.773 44V62H101.938V44H104.773ZM110.891 49.3203V62H108.055V49.3203H110.891ZM107.867 45.9922C107.867 45.5625 108.008 45.207 108.289 44.9258C108.578 44.6367 108.977 44.4922 109.484 44.4922C109.984 44.4922 110.379 44.6367 110.668 44.9258C110.957 45.207 111.102 45.5625 111.102 45.9922C111.102 46.4141 110.957 46.7656 110.668 47.0469C110.379 47.3281 109.984 47.4688 109.484 47.4688C108.977 47.4688 108.578 47.3281 108.289 47.0469C108.008 46.7656 107.867 46.4141 107.867 45.9922ZM122.105 49.3203H124.672V61.6484C124.672 62.7891 124.43 63.7578 123.945 64.5547C123.461 65.3516 122.785 65.957 121.918 66.3711C121.051 66.793 120.047 67.0039 118.906 67.0039C118.422 67.0039 117.883 66.9336 117.289 66.793C116.703 66.6523 116.133 66.4258 115.578 66.1133C115.031 65.8086 114.574 65.4062 114.207 64.9062L115.531 63.2422C115.984 63.7812 116.484 64.1758 117.031 64.4258C117.578 64.6758 118.152 64.8008 118.754 64.8008C119.402 64.8008 119.953 64.6797 120.406 64.4375C120.867 64.2031 121.223 63.8555 121.473 63.3945C121.723 62.9336 121.848 62.3711 121.848 61.707V52.1914L122.105 49.3203ZM113.492 55.8008V55.5547C113.492 54.5938 113.609 53.7188 113.844 52.9297C114.078 52.1328 114.414 51.4492 114.852 50.8789C115.289 50.3008 115.82 49.8594 116.445 49.5547C117.07 49.2422 117.777 49.0859 118.566 49.0859C119.387 49.0859 120.086 49.2344 120.664 49.5312C121.25 49.8281 121.738 50.2539 122.129 50.8086C122.52 51.3555 122.824 52.0117 123.043 52.7773C123.27 53.5352 123.438 54.3789 123.547 55.3086V56.0938C123.445 57 123.273 57.8281 123.031 58.5781C122.789 59.3281 122.469 59.9766 122.07 60.5234C121.672 61.0703 121.18 61.4922 120.594 61.7891C120.016 62.0859 119.332 62.2344 118.543 62.2344C117.77 62.2344 117.07 62.0742 116.445 61.7539C115.828 61.4336 115.297 60.9844 114.852 60.4062C114.414 59.8281 114.078 59.1484 113.844 58.3672C113.609 57.5781 113.492 56.7227 113.492 55.8008ZM116.316 55.5547V55.8008C116.316 56.3789 116.371 56.918 116.48 57.418C116.598 57.918 116.773 58.3594 117.008 58.7422C117.25 59.1172 117.555 59.4141 117.922 59.6328C118.297 59.8438 118.738 59.9492 119.246 59.9492C119.91 59.9492 120.453 59.8086 120.875 59.5273C121.305 59.2461 121.633 58.8672 121.859 58.3906C122.094 57.9062 122.258 57.3672 122.352 56.7734V54.6523C122.305 54.1914 122.207 53.7617 122.059 53.3633C121.918 52.9648 121.727 52.6172 121.484 52.3203C121.242 52.0156 120.938 51.7812 120.57 51.6172C120.203 51.4453 119.77 51.3594 119.27 51.3594C118.762 51.3594 118.32 51.4688 117.945 51.6875C117.57 51.9062 117.262 52.207 117.02 52.5898C116.785 52.9727 116.609 53.418 116.492 53.9258C116.375 54.4336 116.316 54.9766 116.316 55.5547ZM130.391 44V62H127.578V44H130.391ZM129.898 55.1914L128.984 55.1797C128.992 54.3047 129.113 53.4961 129.348 52.7539C129.59 52.0117 129.926 51.3672 130.355 50.8203C130.793 50.2656 131.316 49.8398 131.926 49.543C132.535 49.2383 133.211 49.0859 133.953 49.0859C134.578 49.0859 135.141 49.1719 135.641 49.3438C136.148 49.5156 136.586 49.793 136.953 50.1758C137.32 50.5508 137.598 51.043 137.785 51.6523C137.98 52.2539 138.078 52.9883 138.078 53.8555V62H135.242V53.832C135.242 53.2227 135.152 52.7383 134.973 52.3789C134.801 52.0195 134.547 51.7617 134.211 51.6055C133.875 51.4414 133.465 51.3594 132.98 51.3594C132.473 51.3594 132.023 51.4609 131.633 51.6641C131.25 51.8672 130.93 52.1445 130.672 52.4961C130.414 52.8477 130.219 53.2539 130.086 53.7148C129.961 54.1758 129.898 54.668 129.898 55.1914ZM146.75 49.3203V51.3828H139.602V49.3203H146.75ZM141.664 46.2148H144.488V58.4961C144.488 58.8867 144.543 59.1875 144.652 59.3984C144.77 59.6016 144.93 59.7383 145.133 59.8086C145.336 59.8789 145.574 59.9141 145.848 59.9141C146.043 59.9141 146.23 59.9023 146.41 59.8789C146.59 59.8555 146.734 59.832 146.844 59.8086L146.855 61.9648C146.621 62.0352 146.348 62.0977 146.035 62.1523C145.73 62.207 145.379 62.2344 144.98 62.2344C144.332 62.2344 143.758 62.1211 143.258 61.8945C142.758 61.6602 142.367 61.2812 142.086 60.7578C141.805 60.2344 141.664 59.5391 141.664 58.6719V46.2148Z" fill="#FB5F2F"/>
</g>
<defs>
<clipPath id="clip0_9014_21003">
<rect width="392" height="200" rx="8" fill="white"/>
</clipPath>
</defs>
</svg>
