<svg width="41" height="41" viewBox="0 0 41 41" fill="none" xmlns="http://www.w3.org/2000/svg">
<path d="M27.1162 38.418H13.7829C8.08288 38.418 5.86621 36.2013 5.86621 30.5013V17.168C5.86621 16.4846 6.43288 15.918 7.11621 15.918H33.7829C34.4662 15.918 35.0329 16.4846 35.0329 17.168V30.5013C35.0329 36.2013 32.8162 38.418 27.1162 38.418ZM8.36621 18.418V30.5013C8.36621 34.8013 9.48288 35.918 13.7829 35.918H27.1162C31.4162 35.918 32.5329 34.8013 32.5329 30.5013V18.418H8.36621Z" fill="#424242"/>
<path d="M33.0003 18.4154H8.00033C5.08366 18.4154 3.41699 16.7487 3.41699 13.832V12.1654C3.41699 9.2487 5.08366 7.58203 8.00033 7.58203H33.0003C35.8337 7.58203 37.5837 9.33203 37.5837 12.1654V13.832C37.5837 16.6654 35.8337 18.4154 33.0003 18.4154ZM8.00033 10.082C6.48366 10.082 5.91699 10.6487 5.91699 12.1654V13.832C5.91699 15.3487 6.48366 15.9154 8.00033 15.9154H33.0003C34.467 15.9154 35.0837 15.2987 35.0837 13.832V12.1654C35.0837 10.6987 34.467 10.082 33.0003 10.082H8.00033Z" fill="#424242"/>
<path d="M19.8998 10.0815H10.6998C10.3498 10.0815 10.0165 9.93151 9.78316 9.68151C8.7665 8.56484 8.79983 6.84818 9.8665 5.78151L12.2332 3.41484C13.3332 2.31484 15.1498 2.31484 16.2498 3.41484L20.7832 7.94818C21.1332 8.29818 21.2498 8.84818 21.0498 9.31484C20.8665 9.78151 20.4165 10.0815 19.8998 10.0815ZM11.6165 7.58151H16.8998L14.4832 5.18151C14.3498 5.04818 14.1332 5.04818 13.9998 5.18151L11.6332 7.54818C11.6332 7.56484 11.6165 7.56484 11.6165 7.58151Z" fill="#424242"/>
<path d="M30.2835 10.0815H21.0835C20.5835 10.0815 20.1168 9.78151 19.9335 9.31484C19.7335 8.84818 19.8501 8.31484 20.2001 7.94818L24.7335 3.41484C25.8335 2.31484 27.6501 2.31484 28.7501 3.41484L31.1168 5.78151C32.1835 6.84818 32.2335 8.56484 31.2001 9.68151C30.9668 9.93151 30.6335 10.0815 30.2835 10.0815ZM24.1168 7.58151H29.4001C29.3835 7.56484 29.3835 7.56484 29.3668 7.54818L27.0001 5.18151C26.8668 5.04818 26.6501 5.04818 26.5168 5.18151L24.1168 7.58151Z" fill="#424242"/>
<path d="M17.0671 28.668C16.6004 28.668 16.1171 28.5513 15.6837 28.318C14.7337 27.8013 14.1504 26.818 14.1504 25.7513V17.168C14.1504 16.4846 14.7171 15.918 15.4004 15.918H25.4671C26.1504 15.918 26.7171 16.4846 26.7171 17.168V25.718C26.7171 26.8013 26.1337 27.7846 25.1837 28.2846C24.2337 28.8013 23.0837 28.7346 22.1837 28.1346L20.7004 27.1346C20.5671 27.0346 20.3837 27.0346 20.2337 27.1346L18.6671 28.168C18.1837 28.5013 17.6171 28.668 17.0671 28.668ZM16.6504 18.418V25.7346C16.6504 25.9513 16.7837 26.0513 16.8671 26.1013C16.9504 26.1513 17.1171 26.2013 17.3004 26.0846L18.8671 25.0513C19.8504 24.4013 21.1171 24.4013 22.0837 25.0513L23.5671 26.0513C23.7504 26.168 23.9171 26.118 24.0004 26.068C24.0837 26.018 24.2171 25.918 24.2171 25.7013V18.4013H16.6504V18.418Z" fill="#424242"/>
</svg>
