<svg width="24" height="25" viewBox="0 0 24 25" fill="none" xmlns="http://www.w3.org/2000/svg">
<path d="M21.8055 10.1353H21V10.0938H12V14.0938H17.6515C16.827 16.4223 14.6115 18.0938 12 18.0938C8.6865 18.0938 6 15.4072 6 12.0938C6 8.78025 8.6865 6.09375 12 6.09375C13.5295 6.09375 14.921 6.67075 15.9805 7.61325L18.809 4.78475C17.023 3.12025 14.634 2.09375 12 2.09375C6.4775 2.09375 2 6.57125 2 12.0938C2 17.6163 6.4775 22.0938 12 22.0938C17.5225 22.0938 22 17.6163 22 12.0938C22 11.4233 21.931 10.7688 21.8055 10.1353Z" fill="#FBC02D"/>
<path d="M3.15234 7.43925L6.43784 9.84875C7.32684 7.64775 9.47984 6.09375 11.9993 6.09375C13.5288 6.09375 14.9203 6.67075 15.9798 7.61325L18.8083 4.78475C17.0223 3.12025 14.6333 2.09375 11.9993 2.09375C8.15834 2.09375 4.82734 4.26225 3.15234 7.43925Z" fill="#E53935"/>
<path d="M12.0002 22.0941C14.5832 22.0941 16.9302 21.1056 18.7047 19.4981L15.6097 16.8791C14.6057 17.6396 13.3577 18.0941 12.0002 18.0941C9.39916 18.0941 7.19066 16.4356 6.35866 14.1211L3.09766 16.6336C4.75266 19.8721 8.11366 22.0941 12.0002 22.0941Z" fill="#4CAF50"/>
<path d="M21.8055 10.1353L21.7975 10.0938H21H12V14.0938H17.6515C17.2555 15.2122 16.536 16.1767 15.608 16.8792L15.6095 16.8783L18.7045 19.4972C18.4855 19.6962 22 17.0938 22 12.0938C22 11.4233 21.931 10.7688 21.8055 10.1353Z" fill="#1565C0"/>
</svg>
