<svg width="89" height="38" viewBox="0 0 89 38" fill="none" xmlns="http://www.w3.org/2000/svg">
<mask id="mask0_9014_16339" style="mask-type:luminance" maskUnits="userSpaceOnUse" x="0" y="0" width="89" height="38">
<path d="M88.4189 0H0.418945V38H88.4189V0Z" fill="white"/>
</mask>
<g mask="url(#mask0_9014_16339)">
<path d="M19.7295 38C30.3855 38 39.04 29.503 39.04 19.0042C39.04 8.50485 30.3855 0 19.7295 0C9.05697 0 0.418945 8.50485 0.418945 19.0042C0.418945 29.503 9.05697 38 19.7295 38Z" fill="#A50034"/>
<path d="M18.9521 10.6641V27.3358H24.3346V25.8367H20.5035V10.6641H18.9521Z" fill="white"/>
<path d="M13.5628 15.212C14.8433 15.212 15.8755 14.1867 15.8755 12.9346C15.8755 11.6816 14.8433 10.6523 13.5628 10.6523C12.2822 10.6523 11.25 11.6816 11.25 12.9346C11.25 14.1877 12.2822 15.212 13.5628 15.212Z" fill="white"/>
<path d="M20.5037 3.10026C20.3018 3.09042 19.9181 3.07812 19.7348 3.07812C10.8214 3.07812 3.56738 10.2236 3.56738 18.9952C3.56738 23.2557 5.24862 27.2491 8.29384 30.2521C11.3515 33.2483 15.409 34.9038 19.7348 34.9038C24.044 34.9038 28.1005 33.2483 31.1527 30.2521C34.2054 27.2491 35.8946 23.2557 35.8946 18.9952V18.2872H35.2406H24.3503V19.7523H34.3548C34.3548 19.7843 34.3548 19.9398 34.3478 19.9801C33.8392 27.4788 27.479 33.418 19.7348 33.418C15.8147 33.418 12.139 31.917 9.37253 29.1909C6.59712 26.4762 5.06776 22.8596 5.06776 18.9947C5.06776 15.1518 6.59712 11.5166 9.37253 8.79346C12.139 6.07282 15.8147 4.57177 19.7348 4.57177C19.9036 4.57177 20.3143 4.57177 20.5037 4.58161V3.10026Z" fill="white"/>
<path d="M53.5624 6.39482H47.7598V31.1306H65.5824V26.3156H53.5624V6.39482ZM78.3473 21.7042H83.0733V26.0292C82.2019 26.3559 80.5027 26.6816 78.8859 26.6816C73.6633 26.6816 71.9236 24.0697 71.9236 18.7647C71.9236 13.7056 73.5804 10.7228 78.803 10.7228C81.7053 10.7228 83.3631 11.6211 84.729 13.3357L88.3368 10.0694C86.1395 6.96995 82.2839 6.03125 78.6791 6.03125C70.5532 6.03125 66.2849 10.3981 66.2849 18.7233C66.2849 27.0083 70.1395 31.4976 78.6381 31.4976C82.5337 31.4976 86.3473 30.5185 88.4188 29.0903V17.0909H78.3473V21.7042Z" fill="#6B6B6B"/>
</g>
</svg>
