<svg width="137" height="20" viewBox="0 0 137 20" fill="none" xmlns="http://www.w3.org/2000/svg">
<path d="M76.5488 0.832031C77.1549 0.832031 77.614 0.994164 77.9263 1.31405C78.2431 1.62955 78.4038 1.98887 78.4038 2.39201C78.4038 2.77324 78.2431 3.12379 77.9263 3.44368C77.614 3.76575 77.1549 3.92569 76.5488 3.92569H70.6806L70.7174 18.4037C70.7174 18.947 70.5107 19.3502 70.1021 19.6131C69.6911 19.8716 69.2756 19.9987 68.8531 19.9987C68.4123 19.9987 67.9945 19.8716 67.6042 19.6131C67.2185 19.3502 67.0257 18.947 67.0257 18.4037V3.92569H61.1851C60.579 3.92569 60.1359 3.76575 59.8535 3.44368C59.5665 3.12379 59.4219 2.77324 59.4219 2.39201C59.4219 1.98887 59.5665 1.62955 59.8535 1.31405C60.1359 0.994164 60.579 0.832031 61.1851 0.832031H76.5488Z" fill="#1A4DE1"/>
<path d="M82.2003 14.6702V18.465C82.2003 18.9865 81.9936 19.3721 81.5851 19.6218C81.1813 19.8738 80.7488 19.9987 80.2874 19.9987C79.7995 19.9987 79.3646 19.8738 78.9801 19.6218C78.5956 19.3721 78.4033 18.9952 78.4033 18.4913V2.39201C78.4033 1.9319 78.5884 1.55724 78.9608 1.27023C79.3381 0.978827 79.7899 0.832031 80.3162 0.832031H87.0546C88.8809 0.832031 90.4406 1.12781 91.7358 1.71719C93.0359 2.30875 94.026 3.13256 94.7061 4.18861C95.391 5.24028 95.7346 6.48037 95.7346 7.9045C95.7346 9.92678 94.9608 11.5591 93.418 12.8035C91.88 14.048 89.7268 14.6702 86.9584 14.6702H82.2003ZM82.2003 3.81176V11.6905H86.9584C88.5854 11.6905 89.8278 11.3465 90.6881 10.6564C91.546 9.96183 91.9762 9.04381 91.9762 7.9045C91.9762 6.66003 91.5484 5.66752 90.6977 4.92478C89.8518 4.18423 88.6454 3.81176 87.0834 3.81176H82.2003Z" fill="#1A4DE1"/>
<path d="M96.5605 2.45335C96.5605 1.89246 96.7273 1.48494 97.0627 1.22641C97.4023 0.96349 97.781 0.832031 98.1988 0.832031C98.6104 0.832031 98.9891 0.96349 99.3349 1.22641C99.6848 1.48494 99.8618 1.89246 99.8618 2.45335V18.465C99.8618 18.9689 99.6848 19.3502 99.3349 19.6131C98.9891 19.8716 98.6104 19.9987 98.1988 19.9987C97.781 19.9987 97.4023 19.8738 97.0627 19.6218C96.7273 19.3721 96.5605 18.9865 96.5605 18.465V2.45335Z" fill="#1A4DE1"/>
<path d="M110.485 0.832031C111.962 0.832031 113.329 1.04868 114.586 1.47772C115.847 1.90251 116.968 2.65015 117.945 3.72062C118.346 4.16878 118.521 4.5957 118.468 5.0035C118.416 5.4113 118.224 5.74264 117.893 5.99752C117.565 6.25239 117.179 6.37133 116.732 6.35434C116.283 6.3331 115.86 6.11646 115.458 5.70866C114.719 4.91005 113.934 4.39605 113.102 4.16241C112.276 3.92453 111.392 3.80558 110.45 3.80558C109.194 3.80558 108.09 4.07533 107.143 4.61269C106.194 5.14581 105.455 5.89132 104.927 6.8471C104.397 7.79864 104.133 8.91797 104.133 10.203C104.133 11.5623 104.399 12.7581 104.936 13.7882C105.477 14.8205 106.229 15.6191 107.196 16.1841C108.166 16.7448 109.303 17.0251 110.607 17.0251C111.543 17.0251 112.479 16.7936 113.417 16.3285C114.359 15.8591 115.109 15.292 115.668 14.6293C116.069 14.1663 116.501 13.8987 116.968 13.8307C117.439 13.7627 117.849 13.8434 118.198 14.0686C118.547 14.2895 118.756 14.6038 118.826 15.0116C118.896 15.4194 118.75 15.8782 118.39 16.388C117.853 17.125 117.155 17.7643 116.296 18.308C115.434 18.8518 114.503 19.2723 113.504 19.5654C112.509 19.8543 111.523 19.9987 110.546 19.9987C108.568 19.9987 106.84 19.5909 105.363 18.7753C103.884 17.9597 102.737 16.8191 101.917 15.3515C101.097 13.8796 100.687 12.1634 100.687 10.203C100.687 8.31264 101.114 6.66656 101.969 5.26687C102.829 3.8693 104.004 2.78183 105.494 2.00446C106.982 1.22284 108.646 0.832031 110.485 0.832031Z" fill="#1A4DE1"/>
<path d="M136.414 17.3169C136.804 17.7792 137 18.1911 137 18.5527C137 18.9733 136.829 19.3217 136.486 19.5956C136.148 19.865 135.742 19.9987 135.268 19.9987C135.02 19.9987 134.772 19.9615 134.52 19.8848C134.272 19.8037 134.035 19.6525 133.807 19.429L126.411 11.7256L124.084 13.7062V18.43C124.084 18.9339 123.89 19.3217 123.507 19.5956C123.128 19.865 122.708 19.9987 122.253 19.9987C121.802 19.9987 121.396 19.865 121.035 19.5956C120.675 19.3217 120.494 18.9339 120.494 18.43V2.36572C120.494 1.83988 120.675 1.45427 121.035 1.20888C121.396 0.959108 121.802 0.832031 122.253 0.832031C122.708 0.832031 123.128 0.959108 123.507 1.20888C123.89 1.45427 124.084 1.83988 124.084 2.36572V9.55212L133.654 1.30528C134.044 0.989782 134.477 0.832031 134.953 0.832031C135.451 0.832031 135.875 0.994164 136.224 1.31405C136.578 1.62955 136.757 1.98887 136.757 2.39201C136.757 2.81267 136.549 3.20486 136.134 3.56637L128.946 9.61347L136.414 17.3169Z" fill="#1A4DE1"/>
<path d="M43.7412 9.83941L54.0967 19.4677C56.0957 21.3271 60.2023 17.8867 57.7947 15.7235L51.2435 9.83941L58.0048 4.05307C60.0638 2.29146 56.2504 -1.32527 54.2005 0.502217L43.7412 9.83941Z" fill="#1A4DE1"/>
<path d="M51.1689 10.1617L40.8158 0.533292C38.8144 -1.32821 34.7078 2.11217 37.1177 4.27754L43.6666 10.1617L36.9054 15.948C34.8463 17.7097 38.6597 21.3264 40.7096 19.4968L51.1689 10.1617Z" fill="#FB5F2F"/>
<path d="M33.8224 16.9927C34.3447 16.9927 34.7523 17.1592 35.0476 17.4922C35.3407 17.8209 35.4883 18.1736 35.4883 18.5527C35.4883 18.9164 35.3495 19.2494 35.0741 19.5517C34.803 19.8497 34.3865 19.9987 33.8224 19.9987H21.8085C21.2025 19.9987 20.7177 19.8234 20.3541 19.4729C19.9883 19.1223 19.8076 18.6973 19.8076 18.1933V2.60234C19.8076 2.12471 19.9883 1.70842 20.3541 1.35787C20.7177 1.00731 21.2025 0.832031 21.8085 0.832031H33.8224C34.3689 0.832031 34.77 0.978827 35.03 1.27023C35.2944 1.55724 35.4266 1.89027 35.4266 2.26931C35.4266 2.63301 35.2878 2.97481 35.0124 3.29469C34.7413 3.61676 34.3447 3.7767 33.8224 3.7767H23.2628V9.04381H33.2759C33.8048 9.04381 34.197 9.19937 34.4571 9.5083C34.7215 9.81942 34.8537 10.1656 34.8537 10.5512C34.8537 10.9149 34.7215 11.2479 34.4571 11.5503C34.197 11.8483 33.8048 11.9972 33.2759 11.9972H23.2628V16.9927H33.8224Z" fill="#1A4DE1"/>
<path d="M13.5648 2.30437C13.5648 1.82016 13.7697 1.45427 14.1818 1.20888C14.5916 0.959108 15.0314 0.832031 15.4987 0.832031C15.9822 0.832031 16.4104 0.950344 16.7788 1.18259C17.1471 1.41045 17.3313 1.78511 17.3313 2.30437V18.1933C17.3313 18.7959 17.1103 19.2494 16.6683 19.5517C16.2262 19.8497 15.7405 19.9987 15.2133 19.9987C14.8495 19.9987 14.495 19.9198 14.145 19.7621C13.7997 19.5999 13.5234 19.3852 13.3162 19.1223L3.63755 7.26474L3.76648 8.95617V18.4037C3.76648 18.9646 3.56849 19.3721 3.1771 19.6218C2.79032 19.8738 2.36211 19.9987 1.89705 19.9987C1.41128 19.9987 0.971549 19.8738 0.580167 19.6218C0.193389 19.3721 0 18.9646 0 18.4037V2.66369C0 2.06336 0.193389 1.60764 0.580167 1.29652C0.971549 0.987591 1.42049 0.832031 1.92468 0.832031C2.32988 0.832031 2.67291 0.908716 2.95609 1.05989C3.23696 1.20669 3.50863 1.43236 3.76648 1.73471L13.6938 14.0129L13.5648 11.9972V2.30437Z" fill="#1A4DE1"/>
</svg>
