<svg width="178" height="38" viewBox="0 0 178 38" fill="none" xmlns="http://www.w3.org/2000/svg">
<g clip-path="url(#clip0_9014_16330)">
<path d="M62.89 21.8878L61.8309 24.8924H61.7427C61.5661 24.2149 61.2425 23.1839 60.713 21.9467L55.0349 7.65986H49.4746V30.4304H53.1521V16.3792C53.1521 15.4955 53.1521 14.494 53.1227 13.2568C53.0932 12.6382 53.0344 12.1668 53.005 11.8133H53.0932C53.2698 12.6971 53.4757 13.3451 53.6228 13.7575L60.4482 30.3715H63.0371L69.8037 13.6102C69.9508 13.2273 70.0979 12.4614 70.245 11.8133H70.3332C70.245 13.4924 70.1861 14.9947 70.1567 15.9079V30.342H74.0695V7.60094H68.7151L62.89 21.8878ZM77.7764 14.0226H81.601V30.342H77.7764V14.0226ZM79.7181 7.12963C79.0709 7.12963 78.5414 7.36529 78.1001 7.77769C77.6588 8.19009 77.4234 8.72032 77.4234 9.36839C77.4234 9.98699 77.6588 10.5172 78.1001 10.9296C78.5414 11.342 79.0709 11.5482 79.7181 11.5482C80.3654 11.5482 80.9244 11.3126 81.3362 10.9296C81.7775 10.5172 82.0129 9.98699 82.0129 9.36839C82.0129 8.74978 81.7775 8.21955 81.3362 7.77769C80.9538 7.36529 80.3948 7.12963 79.7181 7.12963ZM95.1635 13.8754C94.4575 13.7281 93.722 13.6397 93.0159 13.6397C91.2801 13.6397 89.6915 14.0227 88.3676 14.7885C87.0437 15.5544 85.9846 16.6149 85.3079 17.9405C84.6018 19.2955 84.2488 20.8568 84.2488 22.6537C84.2488 24.2149 84.6018 25.5994 85.2785 26.8661C85.9551 28.1033 86.8966 29.1048 88.1616 29.7823C89.3678 30.4599 90.78 30.8133 92.3687 30.8133C94.1927 30.8133 95.7519 30.4304 96.9876 29.7234L97.017 29.694V26.1591L96.8699 26.2769C96.3109 26.6893 95.6637 27.0428 95.0164 27.249C94.3398 27.4847 93.722 27.6025 93.1924 27.6025C91.6626 27.6025 90.4564 27.1606 89.6032 26.1885C88.7206 25.2459 88.2793 23.9498 88.2793 22.3296C88.2793 20.6506 88.7206 19.325 89.6326 18.3529C90.5446 17.3808 91.7508 16.88 93.2218 16.88C94.4575 16.88 95.7225 17.2924 96.8699 18.1172L97.017 18.2351V14.494L96.9876 14.4645C96.4874 14.2583 95.9284 14.0226 95.1635 13.8754ZM107.785 13.7575C106.843 13.7575 105.961 14.0521 105.196 14.6707C104.548 15.2009 104.107 15.9668 103.725 16.88H103.695V14.0226H99.8707V30.342H103.695V22.0056C103.695 20.5916 103.989 19.4133 104.637 18.5591C105.284 17.6754 106.108 17.2335 107.108 17.2335C107.461 17.2335 107.814 17.3219 108.255 17.3808C108.667 17.4986 108.961 17.6164 109.167 17.7637L109.314 17.8816V14.0521L109.226 14.0226C108.961 13.8459 108.432 13.7575 107.785 13.7575ZM118.199 13.6692C115.522 13.6692 113.374 14.4645 111.874 16.0258C110.344 17.587 109.609 19.7374 109.609 22.4475C109.609 24.9808 110.374 27.0428 111.845 28.5451C113.316 30.018 115.316 30.7839 117.817 30.7839C120.435 30.7839 122.524 29.9885 124.024 28.3978C125.554 26.8071 126.29 24.6862 126.29 22.0645C126.29 19.4723 125.584 17.4102 124.142 15.9079C122.759 14.4056 120.729 13.6692 118.199 13.6692ZM121.259 26.218C120.553 27.1312 119.435 27.573 118.052 27.573C116.669 27.573 115.551 27.1312 114.757 26.1591C113.963 25.2459 113.58 23.9203 113.58 22.2413C113.58 20.5033 113.992 19.1777 114.757 18.2351C115.551 17.2924 116.64 16.8211 118.023 16.8211C119.376 16.8211 120.435 17.263 121.2 18.1761C121.965 19.0893 122.377 20.4149 122.377 22.1529C122.318 23.9203 121.994 25.3048 121.259 26.218ZM134.821 20.7978C133.615 20.2971 132.85 19.9141 132.497 19.5901C132.203 19.2955 132.056 18.8831 132.056 18.3529C132.056 17.911 132.232 17.4692 132.674 17.1746C133.115 16.88 133.615 16.7327 134.351 16.7327C134.998 16.7327 135.675 16.8506 136.322 17.0273C136.969 17.204 137.557 17.4692 138.028 17.8227L138.175 17.9405V14.3467L138.087 14.3172C137.646 14.1405 137.057 13.9637 136.351 13.8164C135.645 13.6986 134.998 13.6397 134.468 13.6397C132.644 13.6397 131.144 14.0816 129.967 15.0537C128.79 15.9668 128.231 17.204 128.231 18.6475C128.231 19.4133 128.349 20.0909 128.614 20.6506C128.879 21.2102 129.261 21.7405 129.791 22.1823C130.32 22.5947 131.085 23.0661 132.144 23.5079C133.027 23.8909 133.703 24.1854 134.115 24.4211C134.527 24.6568 134.792 24.9219 134.998 25.1281C135.145 25.3637 135.233 25.6583 135.233 26.0413C135.233 27.1312 134.41 27.6614 132.733 27.6614C132.085 27.6614 131.409 27.5436 130.614 27.2785C129.82 27.0133 129.085 26.6304 128.467 26.1885L128.32 26.0707V29.8118L128.408 29.8413C128.967 30.1064 129.644 30.2831 130.467 30.4893C131.291 30.6366 132.027 30.7544 132.674 30.7544C134.645 30.7544 136.263 30.3126 137.41 29.3405C138.587 28.3978 139.205 27.1901 139.205 25.6289C139.205 24.5389 138.911 23.5668 138.264 22.8304C137.41 22.1234 136.351 21.387 134.821 20.7978ZM149.296 13.6692C146.619 13.6692 144.471 14.4645 142.971 16.0258C141.47 17.587 140.705 19.7374 140.705 22.4475C140.705 24.9808 141.47 27.0428 142.941 28.5451C144.412 30.018 146.413 30.7839 148.913 30.7839C151.532 30.7839 153.621 29.9885 155.121 28.3978C156.651 26.8071 157.386 24.6862 157.386 22.0645C157.386 19.4723 156.68 17.4102 155.239 15.9079C153.856 14.4056 151.826 13.6692 149.296 13.6692ZM152.326 26.218C151.62 27.1312 150.502 27.573 149.119 27.573C147.707 27.573 146.619 27.1312 145.824 26.1591C145.03 25.2459 144.648 23.9203 144.648 22.2413C144.648 20.5033 145.059 19.1777 145.824 18.2351C146.619 17.2924 147.707 16.8211 149.09 16.8211C150.414 16.8211 151.502 17.263 152.267 18.1761C153.032 19.0893 153.444 20.4149 153.444 22.1529C153.444 23.9203 153.062 25.3048 152.326 26.218ZM177.833 17.1746V14.0226H173.979V9.19164L173.861 9.2211L170.213 10.311L170.125 10.3405V14.0226H164.359V11.9606C164.359 11.018 164.594 10.2816 165.006 9.81025C165.418 9.33893 166.036 9.10327 166.801 9.10327C167.33 9.10327 167.889 9.2211 168.507 9.48622L168.654 9.57459V6.24591L168.566 6.21645C168.036 6.0397 167.33 5.92188 166.418 5.92188C165.271 5.92188 164.271 6.18699 163.359 6.62885C162.447 7.12963 161.77 7.80715 161.27 8.72032C160.77 9.60405 160.505 10.6056 160.505 11.7544V14.0226H157.828V17.1451H160.505V30.342H164.359V17.1746H170.125V25.5699C170.125 29.0165 171.743 30.7544 174.979 30.7544C175.509 30.7544 176.068 30.6661 176.598 30.5777C177.156 30.4599 177.568 30.3126 177.804 30.1947L177.833 30.1653V27.0133L177.686 27.1312C177.451 27.2785 177.245 27.3963 176.892 27.4847C176.598 27.573 176.333 27.6025 176.127 27.6025C175.362 27.6025 174.832 27.4258 174.45 26.9839C174.097 26.5715 173.92 25.894 173.92 24.8924V17.1746H177.833Z" fill="#737373"/>
<path d="M0.166992 0H18.2013V18.0574H0.166992V0Z" fill="#F25022"/>
<path d="M20.084 0H38.1183V18.0574H20.084V0Z" fill="#7FBA00"/>
<path d="M0.166992 19.9414H18.2013V37.9988H0.166992V19.9414Z" fill="#00A4EF"/>
<path d="M20.084 19.9414H38.1183V37.9988H20.084V19.9414Z" fill="#FFB900"/>
</g>
<defs>
<clipPath id="clip0_9014_16330">
<rect width="177.676" height="38" fill="white" transform="translate(0.162109)"/>
</clipPath>
</defs>
</svg>
