<svg width="41" height="41" viewBox="0 0 41 41" fill="none" xmlns="http://www.w3.org/2000/svg">
<path d="M20.7498 38.4177C12.0831 38.4177 5.0498 31.3677 5.0498 22.7177C5.0498 19.601 5.96647 16.5844 7.6998 13.9844C8.08314 13.4177 8.86647 13.251 9.43314 13.6344C9.9998 14.0177 10.1665 14.801 9.78314 15.3677C8.33314 17.5344 7.56647 20.0844 7.56647 22.701C7.56647 29.9844 13.4831 35.901 20.7665 35.901C28.0498 35.901 33.9665 29.9844 33.9665 22.701C33.9665 15.4177 28.0331 9.50104 20.7498 9.50104C19.2165 9.50104 17.7165 9.71771 16.2998 10.151C15.6331 10.351 14.9331 9.98437 14.7331 9.31771C14.5331 8.65104 14.8998 7.95104 15.5665 7.75104C17.2331 7.25104 18.9665 6.98438 20.7498 6.98438C29.4165 6.98438 36.4498 14.0344 36.4498 22.6844C36.4498 31.3344 29.4165 38.4177 20.7498 38.4177Z" fill="#424242"/>
<path d="M13.8666 10.6162C13.5833 10.6162 13.2833 10.5162 13.0499 10.3162C12.5166 9.84955 12.4666 9.06622 12.9166 8.54955L17.7333 3.01622C18.1833 2.49955 18.9833 2.43288 19.4999 2.89955C20.0166 3.34955 20.0666 4.14955 19.6166 4.66622L14.7999 10.1829C14.5499 10.4662 14.1999 10.6162 13.8666 10.6162Z" fill="#272727"/>
<path d="M19.483 14.7162C19.233 14.7162 18.9663 14.6329 18.7496 14.4829L13.1163 10.3662C12.5663 9.96623 12.4496 9.18289 12.8496 8.63289C13.2496 8.06623 14.033 7.94956 14.5996 8.34956L20.2163 12.4496C20.7663 12.8496 20.8996 13.6329 20.483 14.1996C20.2496 14.5496 19.8663 14.7162 19.483 14.7162Z" fill="#272727"/>
</svg>
