<svg width="127" height="21" viewBox="0 0 127 21" fill="none" xmlns="http://www.w3.org/2000/svg">
<path d="M96.5986 1.16062V3.4676H99.0239C100.083 3.4676 100.779 4.08805 101.175 4.48909C101.493 4.81934 108.478 12.1749 108.646 12.3684C108.813 12.5619 108.813 12.5641 108.813 12.6868V16.3318C108.813 16.4989 108.795 16.6655 108.76 16.8294C108.71 16.9352 108.636 17.0297 108.543 17.1063C108.45 17.183 108.34 17.2399 108.221 17.2731C107.992 17.2998 107.761 17.3133 107.531 17.3132L105.102 17.3104V19.6174H118.722V17.3104H116.159C115.929 17.3115 115.7 17.2979 115.473 17.2699C115.354 17.237 115.245 17.1802 115.152 17.1036C115.059 17.027 114.986 16.9324 114.937 16.8266C114.901 16.6628 114.883 16.4961 114.881 16.329V12.6863C114.866 12.5666 114.899 12.4459 114.973 12.3467L122.529 4.34027C123.223 3.6231 123.583 3.46714 124.493 3.46714H127V1.16016H115.776V3.46252H117.469C117.56 3.45745 117.651 3.47671 117.73 3.51797C117.81 3.55924 117.874 3.62078 117.917 3.69532C117.96 3.76984 117.979 3.85422 117.972 3.93841C117.964 4.0226 117.931 4.10306 117.876 4.17024C117.841 4.21741 113.177 9.31055 113.119 9.36016C113.06 9.40972 113.022 9.39779 112.979 9.34355C112.936 9.28927 108.328 4.17025 108.328 4.17025C108.003 3.79988 108.257 3.46253 108.638 3.46253H110.289V1.16016L96.5986 1.16062Z" fill="#424242"/>
<path d="M63.1953 1.16016V3.46714H65.3694C66.939 3.46714 67.0462 4.27899 67.0462 4.98672V15.7839C67.0462 16.4303 67.0867 17.3173 66.0857 17.3173H63.4032V19.622H74.8567V17.3173H72.0627C70.9475 17.3173 70.8967 16.8433 70.884 15.836V6.58599L86.6141 19.622H90.6146L90.4039 4.89914C90.4241 3.82343 90.4951 3.46483 91.6941 3.46483H94.2007V1.16016H82.5167V3.46483H85.0826C86.2613 3.46483 86.4589 3.88713 86.4744 4.89914L86.6141 12.6039L72.9593 1.16016H63.1953Z" fill="#424242"/>
<path d="M11.6205 0C9.15924 0 6.3627 0.429343 4.0005 1.41542C1.79578 2.33073 1.60097e-05 3.80029 1.60097e-05 6.23718C-0.00333419 7.51338 0.519228 8.74239 1.46051 9.67212C2.09805 10.2194 3.12691 11.1489 5.81425 11.6962C7.01567 11.9321 9.58361 12.3119 12.1414 12.5619C14.6992 12.812 17.1783 13.0338 18.1943 13.2862C19.002 13.4773 20.3607 13.7369 20.3607 15.1523C20.3607 16.5677 18.9308 16.9922 18.6819 17.0842C18.433 17.1762 16.7157 17.9075 13.6322 17.9075C11.5891 17.8549 9.56465 17.5315 7.62 16.9474C6.46938 16.5652 5.26316 16.0627 4.13792 14.7864C3.6837 14.1855 3.43163 13.4729 3.41363 12.7388H0.619624V20.0049H3.72367V19.0212C3.72316 18.9482 3.74364 18.8764 3.78295 18.8132C3.82227 18.75 3.879 18.6977 3.94733 18.6616C4.01567 18.6256 4.09312 18.6071 4.17171 18.6081C4.25029 18.6091 4.32717 18.6295 4.39441 18.6673C5.85668 19.2583 7.37767 19.7149 8.93567 20.0307C10.5664 20.3468 11.6206 20.5758 13.6476 20.5758C15.7863 20.6136 17.9179 20.334 19.9618 19.7478C21.3191 19.4022 22.5925 18.8184 23.7132 18.0278C24.3437 17.5781 24.8532 16.9987 25.2018 16.3353C25.5504 15.6718 25.7286 14.9423 25.7225 14.204C25.7333 12.8014 25.1505 11.4509 24.0998 10.4434C23.5154 9.91682 22.8384 9.48688 22.098 9.17216C21.3021 8.83815 20.4758 8.57048 19.6289 8.37231C18.0186 8.00664 14.4019 7.54902 12.6722 7.3886C10.8586 7.21405 7.71149 6.97086 6.45419 6.60995C6.07319 6.49906 5.2958 6.1573 5.2958 5.31982C5.2958 4.72298 5.65145 4.21807 6.35249 3.80996C7.46755 3.16121 9.71804 2.75759 12.065 2.75759C14.3367 2.73209 16.5899 3.1408 18.6844 3.95831C19.247 4.18609 19.7762 4.47949 20.2589 4.83145C21.0461 5.45584 21.5911 6.30262 21.8107 7.24208H24.318V0.917817H21.524V1.65133C21.524 1.88723 21.27 2.19874 20.762 1.94161C19.5022 1.33297 15.9614 0.0165122 11.6205 0Z" fill="#424242"/>
<path d="M45.2457 0C40.8438 0 36.17 1.41526 33.5284 3.64455C32.5214 4.49614 31.7175 5.53408 31.1684 6.6916C30.6194 7.84917 30.3373 9.10062 30.3405 10.3655C30.3248 11.6356 30.601 12.8942 31.1507 14.0573C31.7005 15.2203 32.5111 16.2611 33.5284 17.11C36.3732 19.4856 40.6406 20.7596 45.2457 20.7596C49.8583 20.7596 54.2167 19.4997 56.9933 17.11C57.9801 16.2412 58.768 15.1956 59.308 14.0365C59.8485 12.8774 60.1307 11.6286 60.1373 10.3655C60.1509 9.10369 59.8781 7.8534 59.3362 6.69623C58.7944 5.53901 57.9961 4.5009 56.9933 3.64961C54.0135 1.13959 50.1146 0 45.2457 0ZM45.2457 2.69862C47.6536 2.69862 49.9726 3.50328 51.5347 4.93049C53.046 6.31291 53.8357 8.26622 53.8357 10.3563C53.8357 12.5455 53.117 14.3195 51.5347 15.7821C49.9523 17.2447 47.6866 18.0278 45.2457 18.0278C42.8225 18.0278 40.5083 17.2282 38.9462 15.7821C38.1991 15.0622 37.6126 14.2122 37.2203 13.2811C36.828 12.3499 36.6377 11.356 36.6602 10.3563C36.6602 8.27565 37.44 6.31525 38.9462 4.93049C40.5083 3.49621 42.8377 2.69862 45.2457 2.69862Z" fill="#424242"/>
</svg>
