<svg width="41" height="41" viewBox="0 0 41 41" fill="none" xmlns="http://www.w3.org/2000/svg">
<path d="M35.2497 20.8667C35.2497 11.7167 28.1497 5.5 20.2497 5.5C12.433 5.5 5.24967 11.5833 5.24967 20.9667C4.24967 21.5333 3.58301 22.6 3.58301 23.8333V27.1667C3.58301 29 5.08301 30.5 6.91634 30.5C7.83301 30.5 8.58301 29.75 8.58301 28.8333V20.8167C8.58301 14.4333 13.4997 8.85 19.883 8.66667C26.483 8.46667 31.9163 13.7667 31.9163 20.3333V32.1667H20.2497C19.333 32.1667 18.583 32.9167 18.583 33.8333C18.583 34.75 19.333 35.5 20.2497 35.5H31.9163C33.7497 35.5 35.2497 34 35.2497 32.1667V30.1333C36.233 29.6167 36.9163 28.6 36.9163 27.4V23.5667C36.9163 22.4 36.233 21.3833 35.2497 20.8667Z" fill="#424242"/>
<path d="M15.2497 23.8333C16.1701 23.8333 16.9163 23.0871 16.9163 22.1667C16.9163 21.2462 16.1701 20.5 15.2497 20.5C14.3292 20.5 13.583 21.2462 13.583 22.1667C13.583 23.0871 14.3292 23.8333 15.2497 23.8333Z" fill="#424242"/>
<path d="M25.2497 23.8333C26.1701 23.8333 26.9163 23.0871 26.9163 22.1667C26.9163 21.2462 26.1701 20.5 25.2497 20.5C24.3292 20.5 23.583 21.2462 23.583 22.1667C23.583 23.0871 24.3292 23.8333 25.2497 23.8333Z" fill="#424242"/>
<path d="M30.2497 18.8833C29.4497 14.1333 25.3163 10.5 20.333 10.5C15.283 10.5 9.84967 14.6833 10.283 21.25C14.3997 19.5667 17.4997 15.9 18.383 11.4333C20.5663 15.8167 25.0497 18.8333 30.2497 18.8833Z" fill="#424242"/>
</svg>
