<svg width="40" height="41" viewBox="0 0 40 41" fill="none" xmlns="http://www.w3.org/2000/svg">
<path d="M21.6666 25.082H20C19.3166 25.082 18.75 24.5154 18.75 23.832C18.75 23.1487 19.3166 22.582 20 22.582H21.6666C22.8166 22.582 23.75 21.6487 23.75 20.4987V5.08203H9.99995C8.03329 5.08203 6.23324 6.14867 5.26658 7.86534C4.93324 8.46534 4.16665 8.68207 3.56665 8.34873C2.96665 8.0154 2.74991 7.2487 3.08325 6.6487C4.48325 4.1487 7.13329 2.58203 9.99995 2.58203H25C25.6833 2.58203 26.25 3.1487 26.25 3.83203V20.4987C26.25 23.032 24.2 25.082 21.6666 25.082Z" fill="#424242"/>
<path d="M31.6663 35.082H29.9997C29.3163 35.082 28.7497 34.5154 28.7497 33.832C28.7497 32.682 27.8163 31.7487 26.6663 31.7487C25.5163 31.7487 24.583 32.682 24.583 33.832C24.583 34.5154 24.0163 35.082 23.333 35.082H16.6663C15.983 35.082 15.4163 34.5154 15.4163 33.832C15.4163 32.682 14.483 31.7487 13.333 31.7487C12.183 31.7487 11.2497 32.682 11.2497 33.832C11.2497 34.5154 10.683 35.082 9.99967 35.082H8.33301C4.88301 35.082 2.08301 32.282 2.08301 28.832C2.08301 28.1487 2.64967 27.582 3.33301 27.582C4.01634 27.582 4.58301 28.1487 4.58301 28.832C4.58301 30.8987 6.26634 32.582 8.33301 32.582H8.9163C9.4663 30.6654 11.233 29.2487 13.333 29.2487C15.433 29.2487 17.1997 30.6654 17.7497 32.582H22.2663C22.8163 30.6654 24.583 29.2487 26.683 29.2487C28.783 29.2487 30.5496 30.6654 31.0996 32.582H31.6663C33.733 32.582 35.4163 30.8987 35.4163 28.832V25.082H31.6663C30.0663 25.082 28.7497 23.7654 28.7497 22.1654V17.1654C28.7497 15.5654 30.0497 14.2487 31.6663 14.2487L29.883 11.132C29.5163 10.482 28.8164 10.082 28.0664 10.082H26.2497V20.4987C26.2497 23.032 24.1997 25.082 21.6663 25.082H19.9997C19.3163 25.082 18.7497 24.5154 18.7497 23.832C18.7497 23.1487 19.3163 22.582 19.9997 22.582H21.6663C22.8163 22.582 23.7497 21.6487 23.7497 20.4987V8.83203C23.7497 8.1487 24.3163 7.58203 24.9997 7.58203H28.0664C29.7164 7.58203 31.233 8.46539 32.0496 9.89872L34.8997 14.882C35.1163 15.2654 35.1163 15.7487 34.8997 16.132C34.683 16.5154 34.2663 16.7487 33.8163 16.7487H31.6663C31.433 16.7487 31.2497 16.932 31.2497 17.1654V22.1654C31.2497 22.3987 31.433 22.582 31.6663 22.582H36.6663C37.3497 22.582 37.9163 23.1487 37.9163 23.832V28.832C37.9163 32.282 35.1163 35.082 31.6663 35.082Z" fill="#424242"/>
<path d="M13.3333 38.4167C10.8 38.4167 8.75 36.3667 8.75 33.8333C8.75 31.3 10.8 29.25 13.3333 29.25C15.8667 29.25 17.9167 31.3 17.9167 33.8333C17.9167 36.3667 15.8667 38.4167 13.3333 38.4167ZM13.3333 31.75C12.1833 31.75 11.25 32.6833 11.25 33.8333C11.25 34.9833 12.1833 35.9167 13.3333 35.9167C14.4833 35.9167 15.4167 34.9833 15.4167 33.8333C15.4167 32.6833 14.4833 31.75 13.3333 31.75Z" fill="#424242"/>
<path d="M26.6663 38.4167C24.133 38.4167 22.083 36.3667 22.083 33.8333C22.083 31.3 24.133 29.25 26.6663 29.25C29.1997 29.25 31.2497 31.3 31.2497 33.8333C31.2497 36.3667 29.1997 38.4167 26.6663 38.4167ZM26.6663 31.75C25.5163 31.75 24.583 32.6833 24.583 33.8333C24.583 34.9833 25.5163 35.9167 26.6663 35.9167C27.8163 35.9167 28.7497 34.9833 28.7497 33.8333C28.7497 32.6833 27.8163 31.75 26.6663 31.75Z" fill="#424242"/>
<path d="M36.6667 25.0833H31.6667C30.0667 25.0833 28.75 23.7667 28.75 22.1667V17.1667C28.75 15.5667 30.0667 14.25 31.6667 14.25H33.8166C34.2666 14.25 34.6833 14.4833 34.9 14.8833L37.75 19.8833C37.85 20.0667 37.9167 20.2833 37.9167 20.5V23.8333C37.9167 24.5167 37.35 25.0833 36.6667 25.0833ZM31.6667 16.75C31.4333 16.75 31.25 16.9333 31.25 17.1667V22.1667C31.25 22.4 31.4333 22.5833 31.6667 22.5833H35.4167V20.8334L33.0833 16.75H31.6667Z" fill="#424242"/>
<path d="M13.333 15.082H3.33301C2.64967 15.082 2.08301 14.5154 2.08301 13.832C2.08301 13.1487 2.64967 12.582 3.33301 12.582H13.333C14.0163 12.582 14.583 13.1487 14.583 13.832C14.583 14.5154 14.0163 15.082 13.333 15.082Z" fill="#424242"/>
<path d="M9.99967 20.082H3.33301C2.64967 20.082 2.08301 19.5154 2.08301 18.832C2.08301 18.1487 2.64967 17.582 3.33301 17.582H9.99967C10.683 17.582 11.2497 18.1487 11.2497 18.832C11.2497 19.5154 10.683 20.082 9.99967 20.082Z" fill="#424242"/>
<path d="M6.66634 25.082H3.33301C2.64967 25.082 2.08301 24.5154 2.08301 23.832C2.08301 23.1487 2.64967 22.582 3.33301 22.582H6.66634C7.34968 22.582 7.91634 23.1487 7.91634 23.832C7.91634 24.5154 7.34968 25.082 6.66634 25.082Z" fill="#424242"/>
</svg>
