<svg width="40" height="41" viewBox="0 0 40 41" fill="none" xmlns="http://www.w3.org/2000/svg">
<path d="M8.33366 40.0833C5.56699 40.0833 2.96699 38.6167 1.56699 36.2333C0.81699 35.0333 0.416992 33.6167 0.416992 32.1667C0.416992 27.8 3.96699 24.25 8.33366 24.25C12.7003 24.25 16.2503 27.8 16.2503 32.1667C16.2503 33.6167 15.8503 35.0334 15.1003 36.25C13.7003 38.6167 11.1003 40.0833 8.33366 40.0833ZM8.33366 26.75C5.35033 26.75 2.91699 29.1833 2.91699 32.1667C2.91699 33.15 3.18366 34.1166 3.70033 34.95C4.68366 36.6166 6.41699 37.5833 8.33366 37.5833C10.2503 37.5833 11.9837 36.6 12.967 34.9667C13.4837 34.1167 13.7503 33.1667 13.7503 32.1667C13.7503 29.1833 11.317 26.75 8.33366 26.75Z" fill="#424242"/>
<path d="M7.38314 35.0653C7.06647 35.0653 6.74981 34.9487 6.49981 34.6987L4.8498 33.0487C4.36647 32.5654 4.36647 31.7653 4.8498 31.2819C5.33314 30.7986 6.13314 30.7986 6.61647 31.2819L7.41647 32.082L10.0831 29.6153C10.5831 29.1486 11.3831 29.182 11.8498 29.682C12.3165 30.182 12.2831 30.982 11.7831 31.4487L8.23314 34.7319C7.98314 34.9486 7.68314 35.0653 7.38314 35.0653Z" fill="#424242"/>
<path d="M10.3171 13.5151C9.91707 13.5151 9.5504 13.3318 9.3004 12.9985C9.01707 12.6151 8.98374 12.1151 9.2004 11.6984C9.48374 11.1317 9.88374 10.5818 10.4004 10.0818L15.8171 4.64844C18.5837 1.89844 23.0837 1.89844 25.8504 4.64844L28.7671 7.61515C30.0004 8.83182 30.7504 10.4652 30.8337 12.1985C30.8504 12.5818 30.7004 12.9484 30.4171 13.1984C30.1337 13.4484 29.7504 13.5651 29.3837 13.4984C29.0504 13.4484 28.7004 13.4318 28.3337 13.4318H11.6671C11.2671 13.4318 10.8837 13.4651 10.5004 13.5151C10.4504 13.5151 10.3837 13.5151 10.3171 13.5151ZM13.1004 10.9151H28.0337C27.8171 10.3485 27.4671 9.8318 27.0004 9.36513L24.0671 6.39842C22.2837 4.63175 19.3671 4.63175 17.5671 6.39842L13.1004 10.9151Z" fill="#424242"/>
<path d="M28.3331 38.418H12.7165C12.1831 38.418 11.7165 38.0847 11.5331 37.6013C11.3498 37.1013 11.4998 36.5513 11.8998 36.218C12.2998 35.8846 12.6665 35.4513 12.9331 34.9846C13.4665 34.1346 13.7331 33.168 13.7331 32.1847C13.7331 29.2013 11.2998 26.768 8.31648 26.768C6.76648 26.768 5.28314 27.4346 4.2498 28.618C3.8998 29.0013 3.34981 29.1513 2.86647 28.968C2.38314 28.7847 2.0498 28.318 2.0498 27.8013V20.5013C2.0498 15.368 5.21648 11.6513 10.1331 11.0346C10.5831 10.968 11.0998 10.918 11.6331 10.918H28.2998C28.6998 10.918 29.2165 10.9346 29.7498 11.018C34.6665 11.5846 37.8831 15.318 37.8831 20.5013V28.8346C37.9165 34.568 34.0665 38.418 28.3331 38.418ZM15.2998 35.918H28.3331C32.6331 35.918 35.4165 33.1346 35.4165 28.8346V20.5013C35.4165 16.6013 33.1331 13.9179 29.4331 13.4846C29.0331 13.4179 28.6831 13.418 28.3331 13.418H11.6665C11.2665 13.418 10.8831 13.4513 10.4998 13.5013C6.83314 13.9679 4.58314 16.6346 4.58314 20.5013V25.2013C5.71647 24.5846 7.01647 24.2513 8.33314 24.2513C12.6998 24.2513 16.2498 27.8013 16.2498 32.168C16.2498 33.4846 15.9165 34.7846 15.2998 35.918Z" fill="#424242"/>
<path d="M36.6663 29.2487H31.6663C29.133 29.2487 27.083 27.1987 27.083 24.6654C27.083 22.132 29.133 20.082 31.6663 20.082H36.6663C37.3497 20.082 37.9163 20.6487 37.9163 21.332C37.9163 22.0154 37.3497 22.582 36.6663 22.582H31.6663C30.5163 22.582 29.583 23.5154 29.583 24.6654C29.583 25.8154 30.5163 26.7487 31.6663 26.7487H36.6663C37.3497 26.7487 37.9163 27.3154 37.9163 27.9987C37.9163 28.682 37.3497 29.2487 36.6663 29.2487Z" fill="#424242"/>
</svg>
